<svg xmlns="http://www.w3.org/2000/svg" xmlns:xlink="http://www.w3.org/1999/xlink" width="500" height="500" preserveAspectRatio="xMidYMid meet" version="1.0" viewBox="0 0 375 375" zoomAndPan="magnify"><defs><clipPath id="75157566c7"><path d="M 53 59 L 322 59 L 322 329 L 53 329 Z M 53 59" clip-rule="nonzero"/></clipPath><clipPath id="1121c8e312"><path d="M 243.894531 12.800781 L 366.957031 254.808594 L 130.964844 374.808594 L 7.902344 132.800781 Z M 243.894531 12.800781" clip-rule="nonzero"/></clipPath><clipPath id="24e0d51bc7"><path d="M 243.894531 12.800781 L 366.957031 254.808594 L 130.964844 374.808594 L 7.902344 132.800781 Z M 243.894531 12.800781" clip-rule="nonzero"/></clipPath><clipPath id="1fc16582ab"><path d="M 286.890625 106.980469 C 237.449219 50.484375 152.628906 43.546875 97.816406 91.515625 C 85.976562 101.878906 76.367188 114.199219 69.023438 128.023438 L 69.375 128.207031 L 69.023438 128.023438 C 56.445312 151.695312 51.480469 178.585938 54.65625 205.773438 C 57.902344 233.566406 69.492188 259.539062 88.167969 280.886719 C 137.5625 337.328125 222.296875 344.257812 277.054688 296.335938 C 331.875 248.363281 336.332031 163.476562 286.890625 106.980469 Z M 83.457031 255.515625 C 85.550781 257.90625 87.378906 259.777344 88.753906 261.109375 C 97.925781 269.972656 110.605469 270.652344 124.027344 271.367188 C 139.53125 272.195312 157.105469 273.136719 172.214844 287.191406 C 185.007812 299.097656 197.570312 309.515625 211.777344 314.253906 C 197.371094 309.96875 184.703125 300.199219 172.238281 289.355469 C 157.207031 276.277344 140.019531 274.78125 124.851562 273.460938 C 111.246094 272.273438 98.390625 271.15625 89.105469 262.023438 C 80.828125 253.882812 73.042969 243.316406 67.097656 230.9375 C 72.464844 241.769531 78.652344 250.03125 83.457031 255.515625 Z M 77.59375 247.035156 C 79.46875 249.554688 81.285156 251.773438 82.941406 253.671875 C 85.269531 256.332031 87.300781 258.375 88.789062 259.789062 C 97.738281 268.269531 110.179688 268.515625 123.351562 268.773438 C 139.261719 269.085938 157.289062 269.4375 172.558594 284.601562 C 185.097656 297.058594 196.730469 307.851562 210.601562 313.234375 C 197.015625 308.339844 184.910156 298.261719 172.582031 286.792969 C 157.332031 272.597656 139.652344 271.65625 124.050781 270.824219 C 110.734375 270.109375 98.15625 269.441406 89.132812 260.714844 C 87.601562 259.230469 82.945312 254.519531 77.59375 247.035156 Z M 171.886719 291.917969 C 157.132812 279.949219 140.476562 277.9375 125.777344 276.167969 C 111.835938 274.488281 98.664062 272.898438 89.085938 263.332031 C 81.628906 255.882812 74.597656 246.445312 68.925781 235.523438 C 74.011719 245.054688 79.59375 252.375 83.929688 257.328125 C 85.804688 259.472656 87.449219 261.175781 88.714844 262.421875 C 98.140625 271.691406 111.09375 272.820312 124.804688 274.015625 C 139.882812 275.332031 156.976562 276.820312 171.867188 289.773438 C 184.675781 300.917969 197.695312 310.929688 212.578125 315.09375 C 197.46875 311.386719 184.332031 302.011719 171.886719 291.914062 Z M 213.0625 315.828125 C 197.351562 312.667969 183.816406 303.746094 171.535156 294.480469 C 157.132812 283.609375 141.742188 281.25 126.859375 278.96875 C 112.519531 276.769531 98.972656 274.695312 89.058594 264.644531 C 81.621094 257.101562 74.609375 247.59375 68.945312 236.617188 C 74.195312 246.535156 79.96875 254.097656 84.363281 259.121094 C 86.035156 261.03125 87.511719 262.578125 88.679688 263.742188 C 98.398438 273.457031 111.667969 275.054688 125.710938 276.746094 C 141.046875 278.59375 156.902344 280.507812 171.523438 292.367188 C 184.207031 302.660156 197.609375 312.203125 213.066406 315.832031 Z M 84.519531 260.628906 C 85.855469 262.15625 87.234375 263.636719 88.632812 265.058594 C 98.6875 275.25 112.328125 277.34375 126.769531 279.554688 C 141.578125 281.828125 156.894531 284.175781 171.175781 294.957031 C 182.660156 303.621094 196.324219 312.71875 211.859375 316.214844 C 197.085938 313.417969 183.742188 305.832031 171.179688 297.046875 C 157.207031 287.265625 142.425781 284.527344 128.132812 281.875 C 113.320312 279.132812 99.332031 276.535156 89.03125 265.953125 C 80.878906 257.582031 73.21875 246.878906 67.304688 234.457031 C 71.957031 244.03125 77.8125 252.972656 84.515625 260.632812 Z M 84.886719 262.355469 C 86.09375 263.734375 87.332031 265.078125 88.59375 266.375 C 99.035156 277.097656 113.117188 279.710938 128.027344 282.476562 C 142.257812 285.113281 156.96875 287.839844 170.835938 297.542969 C 182.910156 305.992188 199.128906 315.925781 217.554688 317.785156 C 218.390625 317.871094 219.230469 317.917969 220.070312 317.96875 C 201.902344 317.355469 185.835938 309.300781 170.835938 299.605469 C 157.390625 290.910156 143.292969 287.863281 129.664062 284.917969 C 114.292969 281.589844 99.769531 278.449219 89.015625 267.257812 C 81.050781 258.976562 73.5625 248.46875 67.695312 236.320312 C 72.371094 245.835938 78.207031 254.71875 84.890625 262.351562 Z M 86.386719 270.722656 C 87.050781 271.480469 87.722656 272.226562 88.402344 272.96875 C 102.308594 288.070312 120.75 293.914062 140.273438 300.09375 C 149.757812 303.097656 159.566406 306.199219 169.136719 310.488281 C 188.457031 319.140625 206.777344 322.441406 224.34375 320.371094 C 206.820312 322.871094 188.476562 320.210938 169.0625 312.421875 C 161.285156 309.300781 153.359375 306.6875 145.691406 304.164062 C 124.28125 297.109375 104.054688 290.445312 88.882812 273.816406 C 85.425781 270.027344 82.136719 265.890625 79.0625 261.476562 C 81.363281 264.6875 83.800781 267.777344 86.378906 270.730469 Z M 78.429688 259.324219 C 80.820312 262.699219 83.375 265.945312 86.074219 269.027344 C 86.847656 269.914062 87.640625 270.792969 88.4375 271.652344 C 101.3125 285.5 118.402344 290.570312 136.496094 295.945312 C 147.347656 299.167969 158.574219 302.5 169.472656 307.902344 C 185.832031 316.007812 201.25 320.117188 216.113281 320.234375 C 201.15625 320.582031 185.644531 317.125 169.417969 309.859375 C 159.8125 305.558594 149.984375 302.445312 140.484375 299.4375 C 121.050781 293.285156 102.695312 287.472656 88.910156 272.503906 C 85.207031 268.480469 81.691406 264.070312 78.425781 259.328125 Z M 85.082031 263.910156 C 86.214844 265.203125 87.375 266.464844 88.554688 267.699219 C 99.445312 279.023438 114.058594 282.183594 129.527344 285.53125 C 143.101562 288.46875 157.140625 291.503906 170.492188 300.132812 C 188.550781 311.804688 203.238281 317.441406 218.105469 318.402344 C 200.28125 317.785156 184.535156 310.527344 170.484375 302.167969 C 157.6875 294.558594 144.382812 291.289062 131.511719 288.128906 C 115.453125 284.1875 100.285156 280.457031 88.988281 268.574219 C 83.660156 262.96875 78.554688 256.363281 73.996094 248.960938 C 77.328125 254.273438 81.039062 259.285156 85.085938 263.914062 Z M 85.425781 265.625 C 86.4375 266.777344 87.46875 267.910156 88.515625 269.015625 C 99.941406 281.039062 115.199219 284.785156 131.355469 288.753906 C 144.179688 291.902344 157.4375 295.160156 170.152344 302.722656 C 187.691406 313.15625 202.824219 318.328125 217.644531 318.964844 C 199.46875 318.746094 183.546875 312.039062 170.128906 304.730469 C 158.148438 298.207031 145.765625 294.828125 133.796875 291.5625 C 116.882812 286.949219 100.90625 282.59375 88.960938 269.878906 C 84.410156 265.046875 80.144531 259.613281 76.28125 253.691406 C 79.097656 257.882812 82.144531 261.878906 85.425781 265.625 Z M 85.753906 267.328125 C 86.644531 268.347656 87.554688 269.347656 88.480469 270.332031 C 100.546875 283.175781 116.609375 287.558594 133.621094 292.199219 C 145.554688 295.457031 157.898438 298.824219 169.816406 305.308594 C 182.253906 312.082031 196.832031 318.347656 213.347656 319.472656 C 199.433594 318.902344 185.011719 314.84375 169.777344 307.292969 C 158.824219 301.867188 147.574219 298.527344 136.691406 295.292969 C 118.691406 289.945312 101.691406 284.898438 88.941406 271.1875 C 84.960938 266.910156 81.210938 262.171875 77.746094 257.0625 C 80.246094 260.644531 82.917969 264.082031 85.761719 267.328125 Z M 86.691406 272.414062 C 87.242188 273.042969 87.800781 273.667969 88.363281 274.285156 C 103.660156 291.054688 123.96875 297.746094 145.472656 304.832031 C 153.128906 307.351562 161.046875 309.960938 168.800781 313.074219 C 185.375 319.722656 201.175781 322.648438 216.355469 321.851562 C 201.074219 323.113281 185.164062 320.835938 168.710938 314.976562 C 163.597656 313.15625 158.394531 311.433594 153.363281 309.765625 C 129.019531 301.710938 106.035156 294.101562 88.867188 275.117188 C 84.199219 269.949219 80.011719 264.457031 76.296875 258.722656 C 79.464844 263.53125 82.9375 268.113281 86.695312 272.414062 Z M 86.992188 274.109375 C 87.433594 274.609375 87.878906 275.113281 88.328125 275.605469 C 105.621094 294.734375 128.699219 302.371094 153.128906 310.460938 C 158.160156 312.125 163.359375 313.847656 168.464844 315.664062 C 185.058594 321.570312 201.09375 323.863281 216.496094 322.578125 C 200.984375 324.328125 184.835938 322.679688 168.351562 317.542969 L 165.882812 316.773438 C 138.015625 308.101562 109.195312 299.136719 88.84375 276.429688 C 88.496094 276.042969 88.160156 275.660156 87.816406 275.269531 C 84.203125 271.144531 80.898438 266.816406 77.871094 262.339844 C 80.695312 266.441406 83.734375 270.386719 86.996094 274.113281 Z M 87.238281 275.738281 C 87.582031 276.136719 87.933594 276.535156 88.285156 276.925781 C 108.777344 299.789062 137.691406 308.785156 165.660156 317.488281 L 168.128906 318.253906 C 184.710938 323.421875 200.957031 325.082031 216.5625 323.328125 C 200.84375 325.554688 184.476562 324.53125 167.988281 320.105469 C 141.03125 312.878906 110.550781 302.191406 88.8125 277.738281 C 88.582031 277.480469 88.359375 277.226562 88.132812 276.964844 C 85.679688 274.164062 83.371094 271.273438 81.1875 268.308594 C 83.109375 270.847656 85.125 273.328125 87.234375 275.738281 Z M 88.769531 280.359375 C 86.339844 277.578125 84.042969 274.71875 81.867188 271.789062 C 83.808594 274.34375 85.835938 276.84375 87.96875 279.277344 L 88.214844 279.558594 C 107.25 301.097656 133.914062 315.855469 167.464844 323.429688 C 183.285156 327 198.9375 327.636719 213.984375 325.480469 C 169.429688 333.148438 121.367188 317.597656 88.773438 280.359375 Z M 167.632812 322.671875 C 134.242188 315.140625 107.71875 300.460938 88.792969 279.046875 L 88.554688 278.777344 C 86.1875 276.066406 83.945312 273.28125 81.816406 270.425781 C 83.644531 272.824219 85.550781 275.167969 87.550781 277.449219 C 87.78125 277.714844 88.015625 277.976562 88.25 278.242188 C 110.117188 302.847656 140.730469 313.585938 167.792969 320.84375 C 187.03125 326.003906 206.109375 326.574219 224.191406 322.761719 C 206.140625 326.996094 187.015625 327.046875 167.632812 322.671875 Z M 275.308594 296.777344 C 275.09375 296.964844 274.875 297.144531 274.65625 297.324219 C 274.414062 297.519531 274.175781 297.722656 273.933594 297.917969 C 273.734375 298.082031 273.535156 298.246094 273.332031 298.402344 C 273.121094 298.566406 272.914062 298.738281 272.707031 298.902344 C 272.535156 299.035156 272.359375 299.164062 272.191406 299.292969 C 271.953125 299.476562 271.714844 299.648438 271.480469 299.832031 C 271.445312 299.855469 271.40625 299.882812 271.371094 299.910156 C 270.886719 300.269531 270.40625 300.621094 269.917969 300.96875 C 269.898438 300.984375 269.875 301 269.851562 301.015625 C 269.117188 301.53125 268.386719 302.035156 267.65625 302.53125 C 267.523438 302.621094 267.382812 302.714844 267.25 302.804688 C 266.855469 303.0625 266.457031 303.34375 266.0625 303.597656 C 265.957031 303.664062 265.855469 303.722656 265.753906 303.792969 C 264.703125 304.464844 263.65625 305.097656 262.617188 305.714844 C 262.253906 305.921875 261.898438 306.132812 261.539062 306.339844 C 260.777344 306.777344 260.019531 307.195312 259.265625 307.605469 C 258.683594 307.917969 258.105469 308.222656 257.527344 308.519531 C 257.453125 308.554688 257.382812 308.59375 257.308594 308.628906 C 257.136719 308.714844 256.972656 308.796875 256.804688 308.882812 C 217.34375 328.332031 193.898438 305.050781 172.933594 284.226562 C 157.515625 268.910156 139.371094 268.558594 123.363281 268.242188 C 110.296875 267.988281 97.953125 267.742188 89.160156 259.402344 C 84.824219 255.296875 55.527344 225.792969 56.027344 180.5625 C 56.136719 174.785156 56.699219 168.859375 57.792969 162.808594 C 57.839844 162.566406 57.878906 162.332031 57.925781 162.089844 C 58.117188 161.085938 58.335938 160.066406 58.554688 159.058594 C 58.765625 158.101562 58.972656 157.144531 59.207031 156.183594 C 59.304688 155.78125 59.414062 155.375 59.515625 154.972656 C 59.882812 153.527344 60.269531 152.082031 60.695312 150.632812 C 60.695312 150.632812 60.695312 150.632812 60.699219 150.628906 C 61.167969 149.035156 61.679688 147.441406 62.222656 145.847656 C 62.289062 145.664062 62.347656 145.484375 62.414062 145.300781 C 62.859375 144.011719 63.335938 142.726562 63.828125 141.441406 C 64.050781 140.875 64.269531 140.308594 64.496094 139.746094 C 64.726562 139.164062 64.972656 138.589844 65.214844 138.011719 C 65.320312 137.765625 65.421875 137.519531 65.523438 137.273438 C 65.570312 137.167969 65.613281 137.058594 65.660156 136.949219 C 65.988281 136.191406 66.316406 135.425781 66.660156 134.667969 C 66.707031 134.578125 66.742188 134.484375 66.785156 134.386719 C 66.808594 134.332031 66.835938 134.28125 66.859375 134.226562 C 66.964844 134.003906 67.074219 133.777344 67.179688 133.554688 C 67.441406 132.988281 67.71875 132.425781 67.992188 131.855469 C 68.050781 131.734375 68.113281 131.609375 68.171875 131.484375 C 68.292969 131.246094 68.410156 131.007812 68.527344 130.765625 C 68.625 130.582031 68.714844 130.398438 68.808594 130.214844 C 69.113281 129.609375 69.410156 128.996094 69.726562 128.394531 C 77.011719 114.6875 86.773438 102.585938 98.511719 92.3125 C 152.886719 44.726562 237.035156 51.621094 286.09375 107.679688 C 335.152344 163.730469 330.914062 248.152344 276.539062 295.738281 C 276.132812 296.09375 275.71875 296.433594 275.3125 296.785156 Z M 275.308594 296.777344" clip-rule="nonzero"/></clipPath><linearGradient id="abbed75214" x1="-153.642" x2="866.678" y1="339.92" y2="339.92" gradientTransform="matrix(0.176432, 0.346967, -0.346967, 0.176432, 243.855129, 12.81998)" gradientUnits="userSpaceOnUse"><stop offset="0" stop-color="#F8D26B" stop-opacity="1"/><stop offset=".063" stop-color="#F8D26B" stop-opacity="1"/><stop offset=".078" stop-color="#F8D26B" stop-opacity="1"/><stop offset=".086" stop-color="#F8D26B" stop-opacity="1"/><stop offset=".09" stop-color="#F7D16B" stop-opacity="1"/><stop offset=".094" stop-color="#F6D06A" stop-opacity="1"/><stop offset=".098" stop-color="#F1CC68" stop-opacity="1"/><stop offset=".102" stop-color="#EDC967" stop-opacity="1"/><stop offset=".105" stop-color="#E9C565" stop-opacity="1"/><stop offset=".109" stop-color="#E5C263" stop-opacity="1"/><stop offset=".113" stop-color="#E0BE61" stop-opacity="1"/><stop offset=".117" stop-color="#DCBB5F" stop-opacity="1"/><stop offset=".121" stop-color="#D8B75E" stop-opacity="1"/><stop offset=".125" stop-color="#D3B35C" stop-opacity="1"/><stop offset=".129" stop-color="#CFB05A" stop-opacity="1"/><stop offset=".133" stop-color="#CBAC58" stop-opacity="1"/><stop offset=".137" stop-color="#C7A957" stop-opacity="1"/><stop offset=".141" stop-color="#C2A555" stop-opacity="1"/><stop offset=".145" stop-color="#BEA153" stop-opacity="1"/><stop offset=".148" stop-color="#BA9E51" stop-opacity="1"/><stop offset=".152" stop-color="#B69A50" stop-opacity="1"/><stop offset=".156" stop-color="#B1974E" stop-opacity="1"/><stop offset=".16" stop-color="#AD934C" stop-opacity="1"/><stop offset=".164" stop-color="#A9904A" stop-opacity="1"/><stop offset=".168" stop-color="#A48C48" stop-opacity="1"/><stop offset=".172" stop-color="#A08847" stop-opacity="1"/><stop offset=".176" stop-color="#9C8545" stop-opacity="1"/><stop offset=".18" stop-color="#988143" stop-opacity="1"/><stop offset=".184" stop-color="#937E41" stop-opacity="1"/><stop offset=".188" stop-color="#8F7A40" stop-opacity="1"/><stop offset=".191" stop-color="#8B773E" stop-opacity="1"/><stop offset=".195" stop-color="#87733C" stop-opacity="1"/><stop offset=".199" stop-color="#826F3A" stop-opacity="1"/><stop offset=".203" stop-color="#7E6C38" stop-opacity="1"/><stop offset=".207" stop-color="#7A6837" stop-opacity="1"/><stop offset=".211" stop-color="#756535" stop-opacity="1"/><stop offset=".215" stop-color="#716133" stop-opacity="1"/><stop offset=".219" stop-color="#6D5D31" stop-opacity="1"/><stop offset=".223" stop-color="#695A30" stop-opacity="1"/><stop offset=".227" stop-color="#64562E" stop-opacity="1"/><stop offset=".23" stop-color="#60532C" stop-opacity="1"/><stop offset=".234" stop-color="#5C4F2A" stop-opacity="1"/><stop offset=".238" stop-color="#584C29" stop-opacity="1"/><stop offset=".242" stop-color="#534827" stop-opacity="1"/><stop offset=".246" stop-color="#4F4425" stop-opacity="1"/><stop offset=".25" stop-color="#4B4123" stop-opacity="1"/><stop offset=".254" stop-color="#463D21" stop-opacity="1"/><stop offset=".258" stop-color="#423A20" stop-opacity="1"/><stop offset=".262" stop-color="#3E361E" stop-opacity="1"/><stop offset=".266" stop-color="#3A331C" stop-opacity="1"/><stop offset=".27" stop-color="#36301B" stop-opacity="1"/><stop offset=".273" stop-color="#332D19" stop-opacity="1"/><stop offset=".277" stop-color="#37301B" stop-opacity="1"/><stop offset=".281" stop-color="#3B341D" stop-opacity="1"/><stop offset=".285" stop-color="#3F371E" stop-opacity="1"/><stop offset=".289" stop-color="#433A20" stop-opacity="1"/><stop offset=".293" stop-color="#473E22" stop-opacity="1"/><stop offset=".297" stop-color="#4B4123" stop-opacity="1"/><stop offset=".301" stop-color="#4F4525" stop-opacity="1"/><stop offset=".305" stop-color="#534827" stop-opacity="1"/><stop offset=".309" stop-color="#584C29" stop-opacity="1"/><stop offset=".313" stop-color="#5C4F2A" stop-opacity="1"/><stop offset=".316" stop-color="#60522C" stop-opacity="1"/><stop offset=".32" stop-color="#64562E" stop-opacity="1"/><stop offset=".324" stop-color="#68592F" stop-opacity="1"/><stop offset=".328" stop-color="#6C5D31" stop-opacity="1"/><stop offset=".332" stop-color="#706033" stop-opacity="1"/><stop offset=".336" stop-color="#746334" stop-opacity="1"/><stop offset=".34" stop-color="#786736" stop-opacity="1"/><stop offset=".344" stop-color="#7C6A38" stop-opacity="1"/><stop offset=".348" stop-color="#806E39" stop-opacity="1"/><stop offset=".352" stop-color="#84713B" stop-opacity="1"/><stop offset=".355" stop-color="#88753D" stop-opacity="1"/><stop offset=".359" stop-color="#8D783F" stop-opacity="1"/><stop offset=".363" stop-color="#917B40" stop-opacity="1"/><stop offset=".367" stop-color="#957F42" stop-opacity="1"/><stop offset=".371" stop-color="#998244" stop-opacity="1"/><stop offset=".375" stop-color="#9D8645" stop-opacity="1"/><stop offset=".379" stop-color="#A18947" stop-opacity="1"/><stop offset=".383" stop-color="#A58C49" stop-opacity="1"/><stop offset=".387" stop-color="#A9904A" stop-opacity="1"/><stop offset=".391" stop-color="#AD934C" stop-opacity="1"/><stop offset=".395" stop-color="#B1974E" stop-opacity="1"/><stop offset=".398" stop-color="#B59A4F" stop-opacity="1"/><stop offset=".402" stop-color="#B99E51" stop-opacity="1"/><stop offset=".406" stop-color="#BDA153" stop-opacity="1"/><stop offset=".41" stop-color="#C2A454" stop-opacity="1"/><stop offset=".414" stop-color="#C6A856" stop-opacity="1"/><stop offset=".418" stop-color="#CAAB58" stop-opacity="1"/><stop offset=".422" stop-color="#CEAF5A" stop-opacity="1"/><stop offset=".426" stop-color="#D2B25B" stop-opacity="1"/><stop offset=".43" stop-color="#D6B55D" stop-opacity="1"/><stop offset=".434" stop-color="#DAB95F" stop-opacity="1"/><stop offset=".438" stop-color="#DEBC60" stop-opacity="1"/><stop offset=".441" stop-color="#E2C062" stop-opacity="1"/><stop offset=".445" stop-color="#E6C364" stop-opacity="1"/><stop offset=".449" stop-color="#EAC765" stop-opacity="1"/><stop offset=".453" stop-color="#EECA67" stop-opacity="1"/><stop offset=".457" stop-color="#F2CD69" stop-opacity="1"/><stop offset=".461" stop-color="#F7D16A" stop-opacity="1"/><stop offset=".465" stop-color="#F4CE69" stop-opacity="1"/><stop offset=".469" stop-color="#F1CC68" stop-opacity="1"/><stop offset=".473" stop-color="#ECC866" stop-opacity="1"/><stop offset=".477" stop-color="#E8C564" stop-opacity="1"/><stop offset=".48" stop-color="#E3C163" stop-opacity="1"/><stop offset=".484" stop-color="#DFBD61" stop-opacity="1"/><stop offset=".488" stop-color="#DAB95F" stop-opacity="1"/><stop offset=".492" stop-color="#D6B55D" stop-opacity="1"/><stop offset=".496" stop-color="#D1B25B" stop-opacity="1"/><stop offset=".5" stop-color="#CDAE59" stop-opacity="1"/><stop offset=".504" stop-color="#C8AA57" stop-opacity="1"/><stop offset=".508" stop-color="#C4A656" stop-opacity="1"/><stop offset=".512" stop-color="#C0A354" stop-opacity="1"/><stop offset=".516" stop-color="#BB9F52" stop-opacity="1"/><stop offset=".52" stop-color="#B79B50" stop-opacity="1"/><stop offset=".523" stop-color="#B2974E" stop-opacity="1"/><stop offset=".527" stop-color="#AE944C" stop-opacity="1"/><stop offset=".531" stop-color="#A9904A" stop-opacity="1"/><stop offset=".535" stop-color="#A58C48" stop-opacity="1"/><stop offset=".539" stop-color="#A08847" stop-opacity="1"/><stop offset=".543" stop-color="#9C8545" stop-opacity="1"/><stop offset=".547" stop-color="#978143" stop-opacity="1"/><stop offset=".551" stop-color="#937D41" stop-opacity="1"/><stop offset=".555" stop-color="#8E793F" stop-opacity="1"/><stop offset=".559" stop-color="#8A763D" stop-opacity="1"/><stop offset=".563" stop-color="#85723B" stop-opacity="1"/><stop offset=".566" stop-color="#816E3A" stop-opacity="1"/><stop offset=".57" stop-color="#7C6A38" stop-opacity="1"/><stop offset=".574" stop-color="#786736" stop-opacity="1"/><stop offset=".578" stop-color="#736334" stop-opacity="1"/><stop offset=".582" stop-color="#6F5F32" stop-opacity="1"/><stop offset=".586" stop-color="#6A5B30" stop-opacity="1"/><stop offset=".59" stop-color="#66582E" stop-opacity="1"/><stop offset=".594" stop-color="#61542D" stop-opacity="1"/><stop offset=".598" stop-color="#5D502B" stop-opacity="1"/><stop offset=".602" stop-color="#584C29" stop-opacity="1"/><stop offset=".605" stop-color="#544827" stop-opacity="1"/><stop offset=".609" stop-color="#4F4525" stop-opacity="1"/><stop offset=".613" stop-color="#4B4123" stop-opacity="1"/><stop offset=".617" stop-color="#463D21" stop-opacity="1"/><stop offset=".621" stop-color="#423920" stop-opacity="1"/><stop offset=".625" stop-color="#3D361E" stop-opacity="1"/><stop offset=".629" stop-color="#39321C" stop-opacity="1"/><stop offset=".633" stop-color="#342E1A" stop-opacity="1"/><stop offset=".637" stop-color="#37301B" stop-opacity="1"/><stop offset=".641" stop-color="#3A331C" stop-opacity="1"/><stop offset=".645" stop-color="#3F371E" stop-opacity="1"/><stop offset=".648" stop-color="#443B21" stop-opacity="1"/><stop offset=".652" stop-color="#494023" stop-opacity="1"/><stop offset=".656" stop-color="#4F4425" stop-opacity="1"/><stop offset=".66" stop-color="#544927" stop-opacity="1"/><stop offset=".664" stop-color="#594D29" stop-opacity="1"/><stop offset=".668" stop-color="#5F512B" stop-opacity="1"/><stop offset=".672" stop-color="#64562E" stop-opacity="1"/><stop offset=".676" stop-color="#695A30" stop-opacity="1"/><stop offset=".68" stop-color="#6E5F32" stop-opacity="1"/><stop offset=".684" stop-color="#746334" stop-opacity="1"/><stop offset=".688" stop-color="#796836" stop-opacity="1"/><stop offset=".691" stop-color="#7E6C39" stop-opacity="1"/><stop offset=".695" stop-color="#83703B" stop-opacity="1"/><stop offset=".699" stop-color="#89753D" stop-opacity="1"/><stop offset=".703" stop-color="#8E793F" stop-opacity="1"/><stop offset=".707" stop-color="#937E41" stop-opacity="1"/><stop offset=".711" stop-color="#998244" stop-opacity="1"/><stop offset=".715" stop-color="#9E8746" stop-opacity="1"/><stop offset=".719" stop-color="#A38B48" stop-opacity="1"/><stop offset=".723" stop-color="#A88F4A" stop-opacity="1"/><stop offset=".727" stop-color="#AE944C" stop-opacity="1"/><stop offset=".73" stop-color="#B3984E" stop-opacity="1"/><stop offset=".734" stop-color="#B89D51" stop-opacity="1"/><stop offset=".738" stop-color="#BEA153" stop-opacity="1"/><stop offset=".742" stop-color="#C3A555" stop-opacity="1"/><stop offset=".746" stop-color="#C8AA57" stop-opacity="1"/><stop offset=".75" stop-color="#CDAE59" stop-opacity="1"/><stop offset=".754" stop-color="#D3B35C" stop-opacity="1"/><stop offset=".758" stop-color="#D8B75E" stop-opacity="1"/><stop offset=".762" stop-color="#DDBC60" stop-opacity="1"/><stop offset=".766" stop-color="#E2C062" stop-opacity="1"/><stop offset=".77" stop-color="#E8C464" stop-opacity="1"/><stop offset=".773" stop-color="#EDC967" stop-opacity="1"/><stop offset=".777" stop-color="#F2CD69" stop-opacity="1"/><stop offset=".781" stop-color="#F8D26B" stop-opacity="1"/><stop offset=".785" stop-color="#F4CE69" stop-opacity="1"/><stop offset=".789" stop-color="#F0CB68" stop-opacity="1"/><stop offset=".793" stop-color="#EBC766" stop-opacity="1"/><stop offset=".797" stop-color="#E7C364" stop-opacity="1"/><stop offset=".801" stop-color="#E2C062" stop-opacity="1"/><stop offset=".805" stop-color="#DEBC60" stop-opacity="1"/><stop offset=".809" stop-color="#D9B85E" stop-opacity="1"/><stop offset=".813" stop-color="#D5B45C" stop-opacity="1"/><stop offset=".816" stop-color="#D0B15B" stop-opacity="1"/><stop offset=".82" stop-color="#CCAD59" stop-opacity="1"/><stop offset=".824" stop-color="#C7A957" stop-opacity="1"/><stop offset=".828" stop-color="#C3A555" stop-opacity="1"/><stop offset=".832" stop-color="#BEA253" stop-opacity="1"/><stop offset=".836" stop-color="#BA9E51" stop-opacity="1"/><stop offset=".84" stop-color="#B59A4F" stop-opacity="1"/><stop offset=".844" stop-color="#B1964E" stop-opacity="1"/><stop offset=".848" stop-color="#AC934C" stop-opacity="1"/><stop offset=".852" stop-color="#A88F4A" stop-opacity="1"/><stop offset=".855" stop-color="#A38B48" stop-opacity="1"/><stop offset=".859" stop-color="#9F8746" stop-opacity="1"/><stop offset=".863" stop-color="#9A8444" stop-opacity="1"/><stop offset=".867" stop-color="#968042" stop-opacity="1"/><stop offset=".871" stop-color="#917C41" stop-opacity="1"/><stop offset=".875" stop-color="#8D783F" stop-opacity="1"/><stop offset=".879" stop-color="#88753D" stop-opacity="1"/><stop offset=".883" stop-color="#84713B" stop-opacity="1"/><stop offset=".887" stop-color="#7F6D39" stop-opacity="1"/><stop offset=".891" stop-color="#7B6937" stop-opacity="1"/><stop offset=".895" stop-color="#766535" stop-opacity="1"/><stop offset=".898" stop-color="#726234" stop-opacity="1"/><stop offset=".902" stop-color="#6D5E32" stop-opacity="1"/><stop offset=".906" stop-color="#695A30" stop-opacity="1"/><stop offset=".91" stop-color="#65562E" stop-opacity="1"/><stop offset=".914" stop-color="#60532C" stop-opacity="1"/><stop offset=".918" stop-color="#5C4F2A" stop-opacity="1"/><stop offset=".922" stop-color="#574B28" stop-opacity="1"/><stop offset=".926" stop-color="#534726" stop-opacity="1"/><stop offset=".93" stop-color="#4E4425" stop-opacity="1"/><stop offset=".934" stop-color="#4A4023" stop-opacity="1"/><stop offset=".938" stop-color="#453C21" stop-opacity="1"/><stop offset=".941" stop-color="#41381F" stop-opacity="1"/><stop offset=".945" stop-color="#3C351D" stop-opacity="1"/><stop offset=".949" stop-color="#38311B" stop-opacity="1"/><stop offset=".953" stop-color="#332D19" stop-opacity="1"/><stop offset=".957" stop-color="#332D19" stop-opacity="1"/><stop offset=".961" stop-color="#322C19" stop-opacity="1"/><stop offset=".969" stop-color="#322C19" stop-opacity="1"/><stop offset="1" stop-color="#322C19" stop-opacity="1"/></linearGradient></defs><rect width="450" height="450" x="-37.5" y="-37.5" fill="#fff" fill-opacity="1"/><rect width="450" height="450" x="-37.5" y="-37.5" fill="#000" fill-opacity="1"/><g clip-path="url(#75157566c7)"><g clip-path="url(#1121c8e312)"><g clip-path="url(#24e0d51bc7)"><g clip-path="url(#1fc16582ab)"><path fill="url(#abbed75214)" fill-rule="nonzero" d="M 277.8125 -71.539062 L -70.011719 105.328125 L 110.003906 459.347656 L 457.828125 282.476562 Z M 277.8125 -71.539062"/></g></g></g></g><g fill="#f8d26b" fill-opacity="1"><g><g><path d="M 6.5 -5.097656 L 3.691406 -4.753906 L 4.613281 -8.875 Z M 11.160156 -1.359375 L 5.304688 -11.90625 L 3.230469 -11.652344 L 0.0820312 -0.0117188 L 2.707031 -0.328125 L 3.234375 -2.664062 L 7.460938 -3.175781 L 8.53125 -1.039062 Z M 11.160156 -1.359375" transform="translate(170.00975, 82.896743)"/></g></g></g><g fill="#f8d26b" fill-opacity="1"><g><g><path d="M 3.722656 -3.742188 L 3.738281 -3.742188 L 6.117188 0.429688 L 9.230469 0.648438 L 6.320312 -3.675781 C 7.757812 -3.917969 8.976562 -5.085938 9.109375 -6.972656 C 9.257812 -9.085938 7.753906 -10.65625 5.949219 -10.785156 L 4.226562 -10.90625 L 3.621094 -10.949219 L 1.769531 -11.078125 L 0.984375 0.0703125 L 3.441406 0.242188 Z M 5.402344 -8.878906 C 6.125 -8.828125 6.835938 -8.152344 6.761719 -7.136719 C 6.6875 -6.070312 5.894531 -5.53125 5.171875 -5.582031 L 3.859375 -5.675781 L 4.089844 -8.972656 Z M 5.402344 -8.878906" transform="translate(193.382272, 81.326883)"/></g></g></g><g fill="#f8d26b" fill-opacity="1"><g><g><path d="M 7.933594 -2.296875 L 5.203125 -3.03125 L 7.597656 -6.503906 Z M 10.859375 2.910156 L 9.371094 -9.058594 L 7.355469 -9.597656 L 0.078125 0.0195312 L 2.636719 0.707031 L 3.996094 -1.261719 L 8.109375 -0.15625 L 8.304688 2.226562 Z M 10.859375 2.910156" transform="translate(214.401409, 83.860476)"/></g></g></g><g fill="#f8d26b" fill-opacity="1"><g><g><path d="M 7.164062 -0.148438 C 6.839844 0.519531 6.011719 0.792969 5.347656 0.46875 L 3.945312 -0.214844 L 5.125 -2.640625 L 6.53125 -1.957031 C 7.195312 -1.632812 7.480469 -0.796875 7.164062 -0.148438 Z M 8.515625 -4.679688 C 8.207031 -4.046875 7.414062 -3.773438 6.78125 -4.082031 L 6.011719 -4.457031 L 7.148438 -6.792969 L 7.917969 -6.417969 C 8.550781 -6.109375 8.832031 -5.332031 8.515625 -4.679688 Z M 9.398438 1.015625 C 10.058594 -0.34375 9.582031 -1.691406 8.589844 -2.507812 C 9.507812 -2.480469 10.324219 -3.03125 10.824219 -4.050781 C 11.492188 -5.425781 10.953125 -7.09375 9.238281 -7.929688 L 5.78125 -9.613281 L 0.886719 0.433594 L 4.949219 2.410156 C 6.871094 3.347656 8.554688 2.742188 9.398438 1.015625 Z M 9.398438 1.015625" transform="translate(236.666828, 91.14125)"/></g></g></g><g fill="#f8d26b" fill-opacity="1"><g><g><path d="M 8.015625 1.984375 L 6.019531 -0.015625 L 9.835938 -1.824219 Z M 7.9375 7.960938 L 12.648438 -3.144531 L 11.175781 -4.621094 L 0.0585938 0.0585938 L 1.925781 1.933594 L 4.089844 0.910156 L 7.097656 3.925781 L 6.070312 6.085938 Z M 7.9375 7.960938" transform="translate(268.180048, 111.564305)"/></g></g></g><g fill="#f8d26b" fill-opacity="1"><g><g><path d="M 5.242188 0.628906 L 6.207031 2.058594 C 7.21875 3.558594 9.222656 4.148438 11.101562 2.878906 C 12.859375 1.695312 13.171875 -0.457031 12.160156 -1.957031 L 11.195312 -3.386719 L 10.855469 -3.890625 L 9.816406 -5.433594 L 0.550781 0.816406 L 1.929688 2.863281 Z M 10.324219 -1.214844 C 10.726562 -0.613281 10.632812 0.363281 9.789062 0.933594 C 8.902344 1.527344 7.988281 1.234375 7.585938 0.632812 L 6.847656 -0.457031 L 9.585938 -2.304688 Z M 10.324219 -1.214844" transform="translate(283.800038, 129.027782)"/></g></g></g><g fill="#f8d26b" fill-opacity="1"><g><g><path d="M 1.441406 3.136719 L 11.597656 -1.53125 L 10.566406 -3.773438 L 0.410156 0.894531 Z M 1.441406 3.136719" transform="translate(294.606437, 147.149742)"/></g></g></g><g fill="#f8d26b" fill-opacity="1"><g><g><path d="M 92.578125 17.546875 C 85.617188 21.054688 78.5625 21.628906 71.40625 19.265625 C 63.800781 16.835938 57.25 11.660156 51.75 3.734375 C 48.8125 -0.484375 46.289062 -5.367188 44.1875 -10.921875 L 41.109375 -19.078125 L 18.5 -19.078125 L 13.421875 -7 C 13.097656 -6.164062 12.9375 -5.492188 12.9375 -4.984375 C 12.9375 -4.472656 13.046875 -3.910156 13.265625 -3.296875 C 13.492188 -2.691406 13.972656 -2.148438 14.703125 -1.671875 C 15.441406 -1.191406 16.257812 -0.953125 17.15625 -0.953125 L 17.921875 -0.953125 L 17.921875 0 L -2.59375 0 L -2.59375 -0.953125 L -1.734375 -0.953125 C -0.253906 -0.953125 1.203125 -1.382812 2.640625 -2.25 C 4.078125 -3.113281 5.273438 -4.410156 6.234375 -6.140625 L 27.59375 -54.921875 C 25.101562 -60.546875 22.453125 -64.410156 19.640625 -66.515625 C 17.273438 -68.304688 15.019531 -69.203125 12.875 -69.203125 C 10.738281 -69.203125 8.75 -68.878906 6.90625 -68.234375 L 6.703125 -69.203125 C 11.304688 -71.566406 15.71875 -72.75 19.9375 -72.75 C 25.175781 -72.75 29.867188 -70.703125 34.015625 -66.609375 C 38.109375 -62.585938 41.722656 -56.773438 44.859375 -49.171875 L 58.75 -14.859375 C 63.988281 -1.890625 69.359375 7.023438 74.859375 11.890625 C 77.085938 13.867188 79.382812 15.238281 81.75 16 C 84.113281 16.769531 86.109375 17.15625 87.734375 17.15625 C 89.367188 17.15625 90.953125 16.960938 92.484375 16.578125 Z M 20.125 -23.1875 L 39.671875 -23.1875 L 32.96875 -40.921875 C 32.644531 -41.816406 32.195312 -43.046875 31.625 -44.609375 C 31.050781 -46.179688 30.664062 -47.285156 30.46875 -47.921875 Z M 20.125 -23.1875" transform="translate(119.910146, 215.649265)"/></g></g></g><g fill="#f8d26b" fill-opacity="1"><g><g><path d="M 92.359375 14.46875 C 87.929688 16.6875 83.222656 17.796875 78.234375 17.796875 C 73.804688 17.796875 69.773438 17.113281 66.140625 15.75 C 58.304688 12.851562 51.640625 7.207031 46.140625 -1.1875 C 44.722656 -3.226562 42.082031 -7.144531 38.21875 -12.9375 C 34.363281 -18.726562 31.867188 -22.414062 30.734375 -24 C 28.742188 -27.125 27.15625 -28.828125 25.96875 -29.109375 L 25.96875 -29.96875 C 26.019531 -29.96875 26.085938 -29.96875 26.171875 -29.96875 C 26.253906 -29.96875 26.351562 -29.96875 26.46875 -29.96875 C 26.582031 -29.96875 26.695312 -29.96875 26.8125 -29.96875 C 26.925781 -29.96875 27.066406 -29.96875 27.234375 -29.96875 C 27.410156 -29.96875 27.554688 -29.96875 27.671875 -29.96875 C 30.554688 -29.96875 33.222656 -30.617188 35.671875 -31.921875 C 39.359375 -33.960938 41.203125 -37.738281 41.203125 -43.25 C 41.203125 -47.269531 40.066406 -50.375 37.796875 -52.5625 C 35.523438 -54.75 32.800781 -55.84375 29.625 -55.84375 L 23.15625 -55.84375 L 23.15625 -6.21875 C 23.15625 -4.738281 23.691406 -3.472656 24.765625 -2.421875 C 25.847656 -1.367188 27.128906 -0.84375 28.609375 -0.84375 L 29.703125 -0.84375 L 29.703125 0 L 3.828125 0 L 3.828125 -0.84375 L 4.9375 -0.84375 C 6.351562 -0.84375 7.597656 -1.351562 8.671875 -2.375 C 9.753906 -3.40625 10.328125 -4.65625 10.390625 -6.125 L 10.390625 -53.375 C 10.328125 -54.851562 9.769531 -56.113281 8.71875 -57.15625 C 7.675781 -58.207031 6.414062 -58.734375 4.9375 -58.734375 L 3.828125 -58.734375 L 3.828125 -59.59375 L 33.03125 -59.59375 C 40.351562 -59.59375 46.023438 -57.914062 50.046875 -54.5625 C 53.234375 -51.957031 54.828125 -48.269531 54.828125 -43.5 C 54.828125 -38.726562 53.28125 -34.851562 50.1875 -31.875 C 47.09375 -28.894531 43.554688 -27.40625 39.578125 -27.40625 C 39.242188 -27.40625 38.875 -27.4375 38.46875 -27.5 C 40.800781 -26.25 42.75 -24.859375 44.3125 -23.328125 C 45.875 -21.796875 47.234375 -20.347656 48.390625 -18.984375 C 49.554688 -17.617188 50.550781 -16.410156 51.375 -15.359375 C 52.195312 -14.316406 53.285156 -12.925781 54.640625 -11.1875 C 56.003906 -9.457031 57.425781 -7.65625 58.90625 -5.78125 C 60.382812 -3.914062 62.015625 -2.003906 63.796875 -0.046875 C 65.585938 1.910156 67.570312 3.769531 69.75 5.53125 C 71.9375 7.289062 74.164062 8.738281 76.4375 9.875 C 81.257812 12.3125 86.566406 13.5625 92.359375 13.625 Z M 92.359375 14.46875" transform="translate(172.619364, 232.081848)"/></g></g></g><path fill="none" stroke="#49422e" stroke-linecap="butt" stroke-linejoin="miter" stroke-miterlimit="4" stroke-opacity="1" stroke-width="3" d="M -0.000964699 1.501435 L 29.230969 1.497833" transform="matrix(0.26009, 0.703458, -0.703458, 0.26009, 188.552541, 170.192202)"/></svg>